<?xml version="1.0" standalone="no"?>
<!DOCTYPE svg PUBLIC "-//W3C//DTD SVG 1.1//EN"
"http://www.w3.org/Graphics/SVG/1.1/DTD/svg11.dtd">
<svg width="100%" height="100%" version="1.1"
xmlns="http://www.w3.org/2000/svg"
xmlns:xlink="http://www.w3.org/1999/xlink">
<g fill-rule="evenodd"><path d="M 68,13 L 331,0 L 197,400 L 68,13 z " style="fill-opacity:0.3;fill:rgb(51,51,153);stroke:rgb(51,51,153);stroke-width:2"/></g>
<g fill-rule="evenodd"><path d="M -381,-211 L -429,-226 L -334,-258 L -381,-211 z " style="fill-opacity:0.3;fill:rgb(51,51,153);stroke:rgb(51,51,153);stroke-width:2"/></g>
<g fill-rule="evenodd"><path d="M 69,-469 L 197,-853 L 252,-689 L 229,-696 L 69,-469 z " style="fill-opacity:0.3;fill:rgb(51,51,153);stroke:rgb(51,51,153);stroke-width:2"/></g>
<g fill-rule="evenodd"><path d="M 16,-375 L 103,-258 L 9,-132 L -170,-313 L 16,-375 z " style="fill-opacity:0.3;fill:rgb(51,51,153);stroke:rgb(51,51,153);stroke-width:2"/></g>
<g fill-rule="evenodd"><path d="M 625,-293 L 824,-226 L 634,-163 L 625,-293 z " style="fill-opacity:0.3;fill:rgb(51,51,153);stroke:rgb(51,51,153);stroke-width:2"/></g>
<g fill-rule="evenodd"><path d="M 337,-435 L 354,-383 L 448,-352 L 260,-195 L 197,-383 L 323,-446 L 337,-435 z " style="fill-opacity:0.3;fill:rgb(51,51,153);stroke:rgb(51,51,153);stroke-width:2"/></g>
</svg>
